<?xml version="1.0" encoding="utf-8"?>
<!-- Generator: Adobe Illustrator 27.5.0, SVG Export Plug-In . SVG Version: 6.00 Build 0)  -->
<svg version="1.1" xmlns="http://www.w3.org/2000/svg" xmlns:xlink="http://www.w3.org/1999/xlink" x="0px" y="0px"
	 viewBox="0 0 500 500.001" style="enable-background:new 0 0 500 500.001;" xml:space="preserve">
<g id="BACKGROUND">
</g>
<g id="OBJECTS">
	<rect style="fill:#4E5051;" width="500.001" height="500.001"/>
	<g>
		<g>
			<path style="fill:#CCD2D6;" d="M316.494,306.022h-23.829v-84.137c0-24.088-19.599-43.685-43.688-43.685
				c-24.085,0-43.682,19.597-43.682,43.685v76.191h5.295v-47.656h22.945v-7.941h-22.945v-20.594c0-21.168,17.221-38.39,38.387-38.39
				c21.171,0,38.392,17.222,38.392,38.39h-7.942c0-16.788-13.659-30.447-30.449-30.447c-16.787,0-30.444,13.659-30.444,30.447
				v12.652h22.945v23.828h-22.945v47.656h-21.181v-84.137c0-28.467,23.158-51.628,51.625-51.628c28.47,0,51.63,23.161,51.63,51.628
				v76.191h7.945v-76.191c0-32.847-26.726-59.57-59.575-59.57c-32.846,0-59.567,26.723-59.567,59.57v84.137h-7.942v-84.137
				c0-37.228,30.285-67.513,67.51-67.513c37.23,0,67.517,30.286,67.517,67.513V306.022z"/>
		</g>
		<g>
			
				<text transform="matrix(1 0 0 1 176.835 333.9698)" style="fill:#CCD2D6; font-family:'Poppins-Regular'; font-size:20.3836px; letter-spacing:6;">nf brand</text>
		</g>
	</g>
</g>
</svg>
